# Blender v3.4.1 OBJ File: ''
# www.blender.org
mtllib cube_extruded.mtl
o Cube
v 1.000000 1.000000 -1.000000
v 1.000000 -1.000000 -1.000000
v 1.000000 1.000000 1.000000
v 1.000000 -1.000000 1.000000
v -1.000000 1.000000 -1.000000
v -1.000000 -1.000000 -1.000000
v -1.000000 1.000000 1.000000
v -1.000000 -1.000000 1.000000
v 2.486475 1.000000 -1.000000
v 2.486475 -1.000000 -1.000000
v 2.486475 1.000000 1.000000
v 2.486475 -1.000000 1.000000
v 1.000000 2.418547 1.000000
v -1.000000 2.418547 1.000000
v 1.000000 2.418547 -1.000000
v -1.000000 2.418547 -1.000000
v 2.486475 2.418547 -1.000000
v 2.486475 2.418547 1.000000
vt 0.625000 0.750000
vt 0.625000 0.750000
vt 0.625000 0.750000
vt 0.375000 1.000000
vt 0.375000 0.750000
vt 0.625000 0.000000
vt 0.375000 0.250000
vt 0.375000 0.000000
vt 0.375000 0.500000
vt 0.125000 0.750000
vt 0.125000 0.500000
vt 0.625000 0.250000
vt 0.625000 0.500000
vt 0.375000 0.750000
vt 0.375000 0.500000
vt 0.625000 0.500000
vt 0.625000 0.500000
vt 0.875000 0.500000
vt 0.625000 0.500000
vt 0.625000 1.000000
vt 0.625000 1.000000
vt 0.625000 0.250000
vt 0.625000 0.750000
vt 0.875000 0.750000
vt 0.625000 0.000000
vn 0.0000 0.0000 1.0000
vn -1.0000 0.0000 0.0000
vn 0.0000 -1.0000 0.0000
vn 0.0000 0.0000 -1.0000
vn 1.0000 0.0000 0.0000
vn 0.0000 1.0000 0.0000
usemtl Material
s off
f 11/1/1 13/2/1 3/3/1
f 3/3/1 8/4/1 4/5/1
f 7/6/2 6/7/2 8/8/2
f 2/9/3 8/10/3 6/11/3
f 4/5/1 11/1/1 3/3/1
f 5/12/4 2/9/4 6/7/4
f 9/13/5 12/14/5 10/15/5
f 1/16/4 10/15/4 2/9/4
f 2/9/3 12/14/3 4/5/3
f 5/12/4 15/17/4 1/16/4
f 16/18/6 13/2/6 15/17/6
f 13/2/6 17/19/6 15/17/6
f 3/3/1 14/20/1 7/21/1
f 7/6/2 16/22/2 5/12/2
f 1/16/4 17/19/4 9/13/4
f 9/13/5 18/23/5 11/1/5
f 11/1/1 18/23/1 13/2/1
f 3/3/1 7/21/1 8/4/1
f 7/6/2 5/12/2 6/7/2
f 2/9/3 4/5/3 8/10/3
f 4/5/1 12/14/1 11/1/1
f 5/12/4 1/16/4 2/9/4
f 9/13/5 11/1/5 12/14/5
f 1/16/4 9/13/4 10/15/4
f 2/9/3 10/15/3 12/14/3
f 5/12/4 16/22/4 15/17/4
f 16/18/6 14/24/6 13/2/6
f 13/2/6 18/23/6 17/19/6
f 3/3/1 13/2/1 14/20/1
f 7/6/2 14/25/2 16/22/2
f 1/16/4 15/17/4 17/19/4
f 9/13/5 17/19/5 18/23/5
